# xmcd
#
# Track frame offsets: 
#        150
#        9957
#        20152
#        31180
#        47877
#        59440
#        70435
#        81820
#
# Disc length: 1250 seconds
#
# Revision: 0
# Processed by: cddbd v1.5.1PL0 Copyright (c) Steve Scherf et al.
# Submitted via: ExactAudioCopy v0.95a5
#
DISCID=6404e008
DTITLE=Little Jimmy Dickens - Take An Old Cold Tater and Wait
DYEAR=1988
DGENRE=Country
TTITLE0=May The Bird Of Paradise Fly Up Your Nose
TTITLE1=Hillbilly Fever
TTITLE2=I'm Little But I'm Loud
TTITLE3=We Could
TTITLE4=Take An Old Cold Tater and Wait
TTITLE5=A-Sleeping At The Foot Of The Bed
TTITLE6=Out Behind The Barn
TTITLE7=Life Turned Her That Way
EXTD=
EXTT0=
EXTT1=
EXTT2=
EXTT3=
EXTT4=
EXTT5=
EXTT6=
EXTT7=
PLAYORDER=
